<svg width="19px" height="18px" viewBox="0 0 19 18" version="1.1" xmlns="http://www.w3.org/2000/svg" xmlns:xlink="http://www.w3.org/1999/xlink">
  <path fill="#222" d="M18,16 L19,16 L19,18 L12,18 L12,16 L12.532,16 C12.991,16 13.314,15.547 13.165,15.113 L12.349,13 L6.117,13 L5.302,15.113 C5.153,15.547 5.476,16 5.935,16 L7,16 L7,18 L-1.77635684e-15,18 L-1.77635684e-15,16 L0.43,16 C1.023,16 1.553,15.625 1.75,15.065 L7.257,1.77635684e-15 L11.209,1.77635684e-15 L16.716,15.065 C16.913,15.625 17.406,16 18,16 Z M7.114,10 L11.352,10 L9.093,3.801 L7.114,10 Z" id="Shape"></path>
</svg>